<?xml version="1.0" encoding="UTF-8" standalone="no"?>
<!DOCTYPE svg PUBLIC "-//W3C//DTD SVG 1.1//EN"
 "http://www.w3.org/Graphics/SVG/1.1/DTD/svg11.dtd">
<!-- Generated by graphviz version 2.41.20180603.0423 (20180603.0423)
 -->
<!-- Title: git Pages: 1 -->
<svg width="192pt" height="1196pt"
 viewBox="0.00 0.00 192.49 1196.00" xmlns="http://www.w3.org/2000/svg" xmlns:xlink="http://www.w3.org/1999/xlink">
<g id="graph0" class="graph" transform="scale(1 1) rotate(0) translate(4 1192)">
<title>git</title>
<polygon fill="white" stroke="transparent" points="-4,4 -4,-1192 188.49,-1192 188.49,4 -4,4"/>
<!-- fb0a4f3 -->
<g id="node1" class="node">
<title>fb0a4f3</title>
<ellipse fill="none" stroke="black" cx="92.25" cy="-1170" rx="38.99" ry="18"/>
<text text-anchor="middle" x="92.25" y="-1166.3" font-family="Times,serif" font-size="14.00">fb0a4f3</text>
</g>
<!-- 17cb500 -->
<g id="node2" class="node">
<title>17cb500</title>
<ellipse fill="none" stroke="black" cx="42.25" cy="-1098" rx="42.49" ry="18"/>
<text text-anchor="middle" x="42.25" y="-1094.3" font-family="Times,serif" font-size="14.00">17cb500</text>
</g>
<!-- fb0a4f3&#45;&gt;17cb500 -->
<g id="edge1" class="edge">
<title>fb0a4f3&#45;&gt;17cb500</title>
<path fill="none" stroke="black" d="M80.65,-1152.76C74.55,-1144.23 66.95,-1133.58 60.12,-1124.02"/>
<polygon fill="black" stroke="black" points="62.79,-1121.74 54.13,-1115.63 57.09,-1125.81 62.79,-1121.74"/>
</g>
<!-- 4b4a4ac -->
<g id="node3" class="node">
<title>4b4a4ac</title>
<ellipse fill="none" stroke="black" cx="143.25" cy="-1098" rx="40.89" ry="18"/>
<text text-anchor="middle" x="143.25" y="-1094.3" font-family="Times,serif" font-size="14.00">4b4a4ac</text>
</g>
<!-- fb0a4f3&#45;&gt;4b4a4ac -->
<g id="edge2" class="edge">
<title>fb0a4f3&#45;&gt;4b4a4ac</title>
<path fill="none" stroke="black" d="M104.07,-1152.76C110.36,-1144.14 118.21,-1133.36 125.23,-1123.73"/>
<polygon fill="black" stroke="black" points="128.07,-1125.78 131.13,-1115.63 122.41,-1121.65 128.07,-1125.78"/>
</g>
<!-- 9d9c3fa -->
<g id="node9" class="node">
<title>9d9c3fa</title>
<ellipse fill="none" stroke="black" cx="43.25" cy="-954" rx="40.09" ry="18"/>
<text text-anchor="middle" x="43.25" y="-950.3" font-family="Times,serif" font-size="14.00">9d9c3fa</text>
</g>
<!-- 17cb500&#45;&gt;9d9c3fa -->
<g id="edge8" class="edge">
<title>17cb500&#45;&gt;9d9c3fa</title>
<path fill="none" stroke="black" d="M42.37,-1079.87C42.54,-1055.67 42.85,-1011.21 43.05,-982.39"/>
<polygon fill="black" stroke="black" points="46.55,-982.21 43.13,-972.19 39.55,-982.16 46.55,-982.21"/>
</g>
<!-- 7a74d81 -->
<g id="node4" class="node">
<title>7a74d81</title>
<ellipse fill="none" stroke="black" cx="142.25" cy="-1026" rx="42.49" ry="18"/>
<text text-anchor="middle" x="142.25" y="-1022.3" font-family="Times,serif" font-size="14.00">7a74d81</text>
</g>
<!-- 4b4a4ac&#45;&gt;7a74d81 -->
<g id="edge3" class="edge">
<title>4b4a4ac&#45;&gt;7a74d81</title>
<path fill="none" stroke="black" d="M143,-1079.7C142.89,-1071.98 142.76,-1062.71 142.63,-1054.11"/>
<polygon fill="black" stroke="black" points="146.13,-1054.05 142.49,-1044.1 139.13,-1054.15 146.13,-1054.05"/>
</g>
<!-- f537ca6 -->
<g id="node5" class="node">
<title>f537ca6</title>
<ellipse fill="none" stroke="black" cx="142.25" cy="-954" rx="40.09" ry="18"/>
<text text-anchor="middle" x="142.25" y="-950.3" font-family="Times,serif" font-size="14.00">f537ca6</text>
</g>
<!-- 7a74d81&#45;&gt;f537ca6 -->
<g id="edge4" class="edge">
<title>7a74d81&#45;&gt;f537ca6</title>
<path fill="none" stroke="black" d="M142.25,-1007.7C142.25,-999.98 142.25,-990.71 142.25,-982.11"/>
<polygon fill="black" stroke="black" points="145.75,-982.1 142.25,-972.1 138.75,-982.1 145.75,-982.1"/>
</g>
<!-- f3f50fd -->
<g id="node6" class="node">
<title>f3f50fd</title>
<ellipse fill="none" stroke="black" cx="140.25" cy="-882" rx="37.89" ry="18"/>
<text text-anchor="middle" x="140.25" y="-878.3" font-family="Times,serif" font-size="14.00">f3f50fd</text>
</g>
<!-- f537ca6&#45;&gt;f3f50fd -->
<g id="edge5" class="edge">
<title>f537ca6&#45;&gt;f3f50fd</title>
<path fill="none" stroke="black" d="M141.75,-935.7C141.53,-927.98 141.27,-918.71 141.02,-910.11"/>
<polygon fill="black" stroke="black" points="144.52,-910 140.73,-900.1 137.52,-910.2 144.52,-910"/>
</g>
<!-- 736e623 -->
<g id="node7" class="node">
<title>736e623</title>
<ellipse fill="none" stroke="black" cx="137.25" cy="-810" rx="42.49" ry="18"/>
<text text-anchor="middle" x="137.25" y="-806.3" font-family="Times,serif" font-size="14.00">736e623</text>
</g>
<!-- f3f50fd&#45;&gt;736e623 -->
<g id="edge6" class="edge">
<title>f3f50fd&#45;&gt;736e623</title>
<path fill="none" stroke="black" d="M139.5,-863.7C139.17,-855.98 138.78,-846.71 138.41,-838.11"/>
<polygon fill="black" stroke="black" points="141.9,-837.95 137.98,-828.1 134.91,-838.25 141.9,-837.95"/>
</g>
<!-- 624b5d0 -->
<g id="node8" class="node">
<title>624b5d0</title>
<ellipse fill="none" stroke="black" cx="135.25" cy="-738" rx="42.79" ry="18"/>
<text text-anchor="middle" x="135.25" y="-734.3" font-family="Times,serif" font-size="14.00">624b5d0</text>
</g>
<!-- 736e623&#45;&gt;624b5d0 -->
<g id="edge7" class="edge">
<title>736e623&#45;&gt;624b5d0</title>
<path fill="none" stroke="black" d="M136.75,-791.7C136.53,-783.98 136.27,-774.71 136.02,-766.11"/>
<polygon fill="black" stroke="black" points="139.52,-766 135.73,-756.1 132.52,-766.2 139.52,-766"/>
</g>
<!-- 430977a -->
<g id="node10" class="node">
<title>430977a</title>
<ellipse fill="none" stroke="black" cx="134.25" cy="-666" rx="42.49" ry="18"/>
<text text-anchor="middle" x="134.25" y="-662.3" font-family="Times,serif" font-size="14.00">430977a</text>
</g>
<!-- 624b5d0&#45;&gt;430977a -->
<g id="edge9" class="edge">
<title>624b5d0&#45;&gt;430977a</title>
<path fill="none" stroke="black" d="M135,-719.7C134.89,-711.98 134.76,-702.71 134.63,-694.11"/>
<polygon fill="black" stroke="black" points="138.13,-694.05 134.49,-684.1 131.13,-694.15 138.13,-694.05"/>
</g>
<!-- 7dd1ccb -->
<g id="node11" class="node">
<title>7dd1ccb</title>
<ellipse fill="none" stroke="black" cx="92.25" cy="-378" rx="41.69" ry="18"/>
<text text-anchor="middle" x="92.25" y="-374.3" font-family="Times,serif" font-size="14.00">7dd1ccb</text>
</g>
<!-- 9d9c3fa&#45;&gt;7dd1ccb -->
<g id="edge10" class="edge">
<title>9d9c3fa&#45;&gt;7dd1ccb</title>
<path fill="none" stroke="black" d="M46.01,-936C50.09,-909.42 57.25,-856.33 57.25,-811 57.25,-811 57.25,-811 57.25,-521 57.25,-479.84 71.28,-433.88 81.57,-405.69"/>
<polygon fill="black" stroke="black" points="84.92,-406.74 85.16,-396.15 78.36,-404.28 84.92,-406.74"/>
</g>
<!-- 490e673 -->
<g id="node12" class="node">
<title>490e673</title>
<ellipse fill="none" stroke="black" cx="133.25" cy="-594" rx="42.49" ry="18"/>
<text text-anchor="middle" x="133.25" y="-590.3" font-family="Times,serif" font-size="14.00">490e673</text>
</g>
<!-- 430977a&#45;&gt;490e673 -->
<g id="edge11" class="edge">
<title>430977a&#45;&gt;490e673</title>
<path fill="none" stroke="black" d="M134,-647.7C133.89,-639.98 133.76,-630.71 133.63,-622.11"/>
<polygon fill="black" stroke="black" points="137.13,-622.05 133.49,-612.1 130.13,-622.15 137.13,-622.05"/>
</g>
<!-- 7147f5a -->
<g id="node15" class="node">
<title>7147f5a</title>
<ellipse fill="none" stroke="black" cx="92.25" cy="-306" rx="40.09" ry="18"/>
<text text-anchor="middle" x="92.25" y="-302.3" font-family="Times,serif" font-size="14.00">7147f5a</text>
</g>
<!-- 7dd1ccb&#45;&gt;7147f5a -->
<g id="edge15" class="edge">
<title>7dd1ccb&#45;&gt;7147f5a</title>
<path fill="none" stroke="black" d="M92.25,-359.7C92.25,-351.98 92.25,-342.71 92.25,-334.11"/>
<polygon fill="black" stroke="black" points="95.75,-334.1 92.25,-324.1 88.75,-334.1 95.75,-334.1"/>
</g>
<!-- 0398916 -->
<g id="node13" class="node">
<title>0398916</title>
<ellipse fill="none" stroke="black" cx="131.25" cy="-522" rx="42.79" ry="18"/>
<text text-anchor="middle" x="131.25" y="-518.3" font-family="Times,serif" font-size="14.00">0398916</text>
</g>
<!-- 490e673&#45;&gt;0398916 -->
<g id="edge12" class="edge">
<title>490e673&#45;&gt;0398916</title>
<path fill="none" stroke="black" d="M132.75,-575.7C132.53,-567.98 132.27,-558.71 132.02,-550.11"/>
<polygon fill="black" stroke="black" points="135.52,-550 131.73,-540.1 128.52,-550.2 135.52,-550"/>
</g>
<!-- d1bcb81 -->
<g id="node14" class="node">
<title>d1bcb81</title>
<ellipse fill="none" stroke="black" cx="129.25" cy="-450" rx="42.49" ry="18"/>
<text text-anchor="middle" x="129.25" y="-446.3" font-family="Times,serif" font-size="14.00">d1bcb81</text>
</g>
<!-- 0398916&#45;&gt;d1bcb81 -->
<g id="edge13" class="edge">
<title>0398916&#45;&gt;d1bcb81</title>
<path fill="none" stroke="black" d="M130.75,-503.7C130.53,-495.98 130.27,-486.71 130.02,-478.11"/>
<polygon fill="black" stroke="black" points="133.52,-478 129.73,-468.1 126.52,-478.2 133.52,-478"/>
</g>
<!-- d1bcb81&#45;&gt;7dd1ccb -->
<g id="edge14" class="edge">
<title>d1bcb81&#45;&gt;7dd1ccb</title>
<path fill="none" stroke="black" d="M120.29,-432.05C115.97,-423.89 110.7,-413.91 105.9,-404.82"/>
<polygon fill="black" stroke="black" points="108.89,-402.99 101.12,-395.79 102.7,-406.27 108.89,-402.99"/>
</g>
<!-- e4333fd -->
<g id="node16" class="node">
<title>e4333fd</title>
<ellipse fill="none" stroke="black" cx="92.25" cy="-234" rx="40.09" ry="18"/>
<text text-anchor="middle" x="92.25" y="-230.3" font-family="Times,serif" font-size="14.00">e4333fd</text>
</g>
<!-- 7147f5a&#45;&gt;e4333fd -->
<g id="edge16" class="edge">
<title>7147f5a&#45;&gt;e4333fd</title>
<path fill="none" stroke="black" d="M92.25,-287.7C92.25,-279.98 92.25,-270.71 92.25,-262.11"/>
<polygon fill="black" stroke="black" points="95.75,-262.1 92.25,-252.1 88.75,-262.1 95.75,-262.1"/>
</g>
<!-- 00491f9 -->
<g id="node17" class="node">
<title>00491f9</title>
<ellipse fill="none" stroke="black" cx="92.25" cy="-162" rx="40.89" ry="18"/>
<text text-anchor="middle" x="92.25" y="-158.3" font-family="Times,serif" font-size="14.00">00491f9</text>
</g>
<!-- e4333fd&#45;&gt;00491f9 -->
<g id="edge17" class="edge">
<title>e4333fd&#45;&gt;00491f9</title>
<path fill="none" stroke="black" d="M92.25,-215.7C92.25,-207.98 92.25,-198.71 92.25,-190.11"/>
<polygon fill="black" stroke="black" points="95.75,-190.1 92.25,-180.1 88.75,-190.1 95.75,-190.1"/>
</g>
<!-- 4cc467d -->
<g id="node18" class="node">
<title>4cc467d</title>
<ellipse fill="none" stroke="black" cx="92.25" cy="-90" rx="41.69" ry="18"/>
<text text-anchor="middle" x="92.25" y="-86.3" font-family="Times,serif" font-size="14.00">4cc467d</text>
</g>
<!-- 00491f9&#45;&gt;4cc467d -->
<g id="edge18" class="edge">
<title>00491f9&#45;&gt;4cc467d</title>
<path fill="none" stroke="black" d="M92.25,-143.7C92.25,-135.98 92.25,-126.71 92.25,-118.11"/>
<polygon fill="black" stroke="black" points="95.75,-118.1 92.25,-108.1 88.75,-118.1 95.75,-118.1"/>
</g>
<!-- b357f85 -->
<g id="node19" class="node">
<title>b357f85</title>
<ellipse fill="none" stroke="black" cx="92.25" cy="-18" rx="40.89" ry="18"/>
<text text-anchor="middle" x="92.25" y="-14.3" font-family="Times,serif" font-size="14.00">b357f85</text>
</g>
<!-- 4cc467d&#45;&gt;b357f85 -->
<g id="edge19" class="edge">
<title>4cc467d&#45;&gt;b357f85</title>
<path fill="none" stroke="black" d="M92.25,-71.7C92.25,-63.98 92.25,-54.71 92.25,-46.11"/>
<polygon fill="black" stroke="black" points="95.75,-46.1 92.25,-36.1 88.75,-46.1 95.75,-46.1"/>
</g>
</g>
</svg>
